{
    "asset" : {
        "generator" : "Khronos glTF Blender I/O v3.3.27",
        "version" : "2.0"
    },
    "extensionsUsed" : [
        "KHR_materials_specular",
        "KHR_materials_ior"
    ],
    "scene" : 0,
    "scenes" : [
        {
            "name" : "Scene",
            "nodes" : [
                1
            ]
        }
    ],
    "nodes" : [
        {
            "mesh" : 0,
            "name" : "Left Engine",
            "rotation" : [
                0.7071068286895752,
                0,
                0,
                0.7071068286895752
            ],
            "translation" : [
                579.7891845703125,
                2145.06787109375,
                104.9423828125
            ]
        },
        {
            "children" : [
                0
            ],
            "name" : "Default",
            "scale" : [
                0.0010000000474974513,
                0.0010000000474974513,
                0.0010000000474974513
            ]
        }
    ],
    "materials" : [
        {
            "doubleSided" : true,
            "extensions" : {
                "KHR_materials_specular" : {
                    "specularColorFactor" : [
                        2.371357614441398,
                        2.371357614441398,
                        2.371357614441398
                    ]
                },
                "KHR_materials_ior" : {
                    "ior" : 1.4500000476837158
                }
            },
            "name" : "phong5SG",
            "pbrMetallicRoughness" : {
                "baseColorFactor" : [
                    0.8980392217636108,
                    0.9490196108818054,
                    1,
                    1
                ],
                "roughnessFactor" : 0.5757359266281128
            }
        },
        {
            "doubleSided" : true,
            "extensions" : {
                "KHR_materials_specular" : {
                    "specularColorFactor" : [
                        2.371357614441398,
                        2.371357614441398,
                        2.371357614441398
                    ]
                },
                "KHR_materials_ior" : {
                    "ior" : 1.4500000476837158
                }
            },
            "name" : "phong1SG",
            "pbrMetallicRoughness" : {
                "baseColorFactor" : [
                    1,
                    0.8666666746139526,
                    0.09803921729326248,
                    1
                ],
                "roughnessFactor" : 0.5417424440383911
            }
        },
        {
            "doubleSided" : true,
            "extensions" : {
                "KHR_materials_specular" : {
                    "specularColorFactor" : [
                        2.371357614441398,
                        2.371357614441398,
                        2.371357614441398
                    ]
                },
                "KHR_materials_ior" : {
                    "ior" : 1.4500000476837158
                }
            },
            "name" : "phong3SG",
            "pbrMetallicRoughness" : {
                "baseColorFactor" : [
                    0.0784313753247261,
                    0.0784313753247261,
                    0.0784313753247261,
                    1
                ],
                "roughnessFactor" : 0.5757359266281128
            }
        },
        {
            "doubleSided" : true,
            "emissiveFactor" : [
                1,
                0.9529411792755127,
                0.40392157435417175
            ],
            "extensions" : {
                "KHR_materials_specular" : {
                    "specularColorFactor" : [
                        2.371357614441398,
                        2.371357614441398,
                        2.371357614441398
                    ]
                },
                "KHR_materials_ior" : {
                    "ior" : 1.4500000476837158
                }
            },
            "name" : "phong4SG",
            "pbrMetallicRoughness" : {
                "baseColorFactor" : [
                    1,
                    0.9529411792755127,
                    0.7450980544090271,
                    1
                ],
                "roughnessFactor" : 0.5527864098548889
            }
        },
        {
            "doubleSided" : true,
            "extensions" : {
                "KHR_materials_specular" : {
                    "specularColorFactor" : [
                        2.371357614441398,
                        2.371357614441398,
                        2.371357614441398
                    ]
                },
                "KHR_materials_ior" : {
                    "ior" : 1.4500000476837158
                }
            },
            "name" : "Material_1",
            "pbrMetallicRoughness" : {
                "baseColorFactor" : [
                    0.9803921580314636,
                    0.9803921580314636,
                    0.9803921580314636,
                    1
                ],
                "roughnessFactor" : 0.5527864098548889
            }
        },
        {
            "doubleSided" : true,
            "extensions" : {
                "KHR_materials_specular" : {
                    "specularColorFactor" : [
                        2.371357614441398,
                        2.371357614441398,
                        2.371357614441398
                    ]
                },
                "KHR_materials_ior" : {
                    "ior" : 1.4500000476837158
                }
            },
            "name" : "lambert2SG",
            "pbrMetallicRoughness" : {
                "baseColorFactor" : [
                    0.027450980618596077,
                    0.027450980618596077,
                    0.027450980618596077,
                    1
                ],
                "roughnessFactor" : 0.5527864098548889
            }
        },
        {
            "doubleSided" : true,
            "emissiveFactor" : [
                1,
                0.38823530077934265,
                0.38823530077934265
            ],
            "extensions" : {
                "KHR_materials_specular" : {
                    "specularColorFactor" : [
                        2.371357614441398,
                        2.371357614441398,
                        2.371357614441398
                    ]
                },
                "KHR_materials_ior" : {
                    "ior" : 1.4500000476837158
                }
            },
            "name" : "lambert3SG",
            "pbrMetallicRoughness" : {
                "baseColorFactor" : [
                    0.9019607901573181,
                    0.27450981736183167,
                    0.27450981736183167,
                    1
                ],
                "roughnessFactor" : 0.5527864098548889
            }
        },
        {
            "doubleSided" : true,
            "extensions" : {
                "KHR_materials_specular" : {
                    "specularColorFactor" : [
                        2.371357614441398,
                        2.371357614441398,
                        2.371357614441398
                    ]
                },
                "KHR_materials_ior" : {
                    "ior" : 1.4500000476837158
                }
            },
            "name" : "blinn1SG",
            "pbrMetallicRoughness" : {
                "baseColorFactor" : [
                    0.5098039507865906,
                    0.529411792755127,
                    0.6274510025978088,
                    0.3454546332359314
                ],
                "roughnessFactor" : 0.5527864098548889
            }
        },
        {
            "doubleSided" : true,
            "extensions" : {
                "KHR_materials_specular" : {
                    "specularColorFactor" : [
                        2.371357614441398,
                        2.371357614441398,
                        2.371357614441398
                    ]
                },
                "KHR_materials_ior" : {
                    "ior" : 1.4500000476837158
                }
            },
            "name" : "phong2SG",
            "pbrMetallicRoughness" : {
                "baseColorFactor" : [
                    0.6000000238418579,
                    0.6392157077789307,
                    0.8588235378265381,
                    0.3999999761581421
                ],
                "roughnessFactor" : 0.5757359266281128
            }
        }
    ],
    "meshes" : [
        {
            "name" : "Left Engine",
            "primitives" : [
                {
                    "attributes" : {
                        "POSITION" : 0,
                        "NORMAL" : 1,
                        "TEXCOORD_0" : 2
                    },
                    "indices" : 3,
                    "material" : 0
                },
                {
                    "attributes" : {
                        "POSITION" : 4,
                        "NORMAL" : 5,
                        "TEXCOORD_0" : 6
                    },
                    "indices" : 7,
                    "material" : 1
                },
                {
                    "attributes" : {
                        "POSITION" : 8,
                        "NORMAL" : 9,
                        "TEXCOORD_0" : 10
                    },
                    "indices" : 11,
                    "material" : 2
                },
                {
                    "attributes" : {
                        "POSITION" : 12,
                        "NORMAL" : 13,
                        "TEXCOORD_0" : 14
                    },
                    "indices" : 15,
                    "material" : 3
                },
                {
                    "attributes" : {
                        "POSITION" : 16,
                        "NORMAL" : 17,
                        "TEXCOORD_0" : 18
                    },
                    "indices" : 19,
                    "material" : 4
                },
                {
                    "attributes" : {
                        "POSITION" : 20,
                        "NORMAL" : 21,
                        "TEXCOORD_0" : 22
                    },
                    "indices" : 23,
                    "material" : 5
                },
                {
                    "attributes" : {
                        "POSITION" : 24,
                        "NORMAL" : 25,
                        "TEXCOORD_0" : 26
                    },
                    "indices" : 27,
                    "material" : 6
                },
                {
                    "attributes" : {
                        "POSITION" : 28,
                        "NORMAL" : 29,
                        "TEXCOORD_0" : 30
                    },
                    "indices" : 31,
                    "material" : 7
                },
                {
                    "attributes" : {
                        "POSITION" : 32,
                        "NORMAL" : 33,
                        "TEXCOORD_0" : 34
                    },
                    "indices" : 35,
                    "material" : 8
                }
            ]
        }
    ],
    "accessors" : [
        {
            "bufferView" : 0,
            "componentType" : 5126,
            "count" : 3064,
            "max" : [
                1318.058837890625,
                -238.81793212890625,
                466.59576416015625
            ],
            "min" : [
                -1318.0595703125,
                -1059.6697998046875,
                -7.4082183837890625
            ],
            "type" : "VEC3"
        },
        {
            "bufferView" : 1,
            "componentType" : 5126,
            "count" : 3064,
            "type" : "VEC3"
        },
        {
            "bufferView" : 2,
            "componentType" : 5126,
            "count" : 3064,
            "type" : "VEC2"
        },
        {
            "bufferView" : 3,
            "componentType" : 5123,
            "count" : 10698,
            "type" : "SCALAR"
        },
        {
            "bufferView" : 4,
            "componentType" : 5126,
            "count" : 685,
            "max" : [
                1284.541259765625,
                1253.4664306640625,
                660.3124389648438
            ],
            "min" : [
                -1284.540771484375,
                -1019.1097412109375,
                -1073.008544921875
            ],
            "type" : "VEC3"
        },
        {
            "bufferView" : 5,
            "componentType" : 5126,
            "count" : 685,
            "type" : "VEC3"
        },
        {
            "bufferView" : 6,
            "componentType" : 5126,
            "count" : 685,
            "type" : "VEC2"
        },
        {
            "bufferView" : 7,
            "componentType" : 5123,
            "count" : 1536,
            "type" : "SCALAR"
        },
        {
            "bufferView" : 8,
            "componentType" : 5126,
            "count" : 24,
            "max" : [
                616.2921752929688,
                -268.00225830078125,
                549.7589721679688
            ],
            "min" : [
                -616.2913208007812,
                -903.552978515625,
                49.02204895019531
            ],
            "type" : "VEC3"
        },
        {
            "bufferView" : 9,
            "componentType" : 5126,
            "count" : 24,
            "type" : "VEC3"
        },
        {
            "bufferView" : 10,
            "componentType" : 5126,
            "count" : 24,
            "type" : "VEC2"
        },
        {
            "bufferView" : 11,
            "componentType" : 5123,
            "count" : 36,
            "type" : "SCALAR"
        },
        {
            "bufferView" : 12,
            "componentType" : 5126,
            "count" : 168,
            "max" : [
                654.8097534179688,
                1291.9847412109375,
                -47.33662414550781
            ],
            "min" : [
                -654.8098754882812,
                1080.1346435546875,
                -206.3479766845703
            ],
            "type" : "VEC3"
        },
        {
            "bufferView" : 13,
            "componentType" : 5126,
            "count" : 168,
            "type" : "VEC3"
        },
        {
            "bufferView" : 14,
            "componentType" : 5126,
            "count" : 168,
            "type" : "VEC2"
        },
        {
            "bufferView" : 15,
            "componentType" : 5123,
            "count" : 216,
            "type" : "SCALAR"
        },
        {
            "bufferView" : 16,
            "componentType" : 5126,
            "count" : 464,
            "max" : [
                779.9943237304688,
                1326.6051025390625,
                829.4505004882812
            ],
            "min" : [
                -779.9939575195312,
                -942.0732421875,
                316.36114501953125
            ],
            "type" : "VEC3"
        },
        {
            "bufferView" : 17,
            "componentType" : 5126,
            "count" : 464,
            "type" : "VEC3"
        },
        {
            "bufferView" : 18,
            "componentType" : 5126,
            "count" : 464,
            "type" : "VEC2"
        },
        {
            "bufferView" : 19,
            "componentType" : 5123,
            "count" : 1476,
            "type" : "SCALAR"
        },
        {
            "bufferView" : 20,
            "componentType" : 5126,
            "count" : 190,
            "max" : [
                731.8468627929688,
                472.2284240722656,
                -218.30201721191406
            ],
            "min" : [
                -731.8460083007812,
                -1019.1097412109375,
                -1073.008544921875
            ],
            "type" : "VEC3"
        },
        {
            "bufferView" : 21,
            "componentType" : 5126,
            "count" : 190,
            "type" : "VEC3"
        },
        {
            "bufferView" : 22,
            "componentType" : 5126,
            "count" : 190,
            "type" : "VEC2"
        },
        {
            "bufferView" : 23,
            "componentType" : 5123,
            "count" : 408,
            "type" : "SCALAR"
        },
        {
            "bufferView" : 24,
            "componentType" : 5126,
            "count" : 72,
            "max" : [
                770.3644409179688,
                -942.0732421875,
                29.699844360351562
            ],
            "min" : [
                -770.3643188476562,
                -1057.6279296875,
                -129.31153869628906
            ],
            "type" : "VEC3"
        },
        {
            "bufferView" : 25,
            "componentType" : 5126,
            "count" : 72,
            "type" : "VEC3"
        },
        {
            "bufferView" : 26,
            "componentType" : 5126,
            "count" : 72,
            "type" : "VEC2"
        },
        {
            "bufferView" : 27,
            "componentType" : 5123,
            "count" : 120,
            "type" : "SCALAR"
        },
        {
            "bufferView" : 28,
            "componentType" : 5126,
            "count" : 98,
            "max" : [
                616.2921752929688,
                1214.9483642578125,
                -239.99049377441406
            ],
            "min" : [
                -616.2913208007812,
                1028.0770263671875,
                -866.0338745117188
            ],
            "type" : "VEC3"
        },
        {
            "bufferView" : 29,
            "componentType" : 5126,
            "count" : 98,
            "type" : "VEC3"
        },
        {
            "bufferView" : 30,
            "componentType" : 5126,
            "count" : 98,
            "type" : "VEC2"
        },
        {
            "bufferView" : 31,
            "componentType" : 5123,
            "count" : 240,
            "type" : "SCALAR"
        },
        {
            "bufferView" : 32,
            "componentType" : 5126,
            "count" : 24,
            "max" : [
                539.2550659179688,
                -935.7984619140625,
                -307.7125244140625
            ],
            "min" : [
                -539.2549438476562,
                -963.357666015625,
                -798.3117065429688
            ],
            "type" : "VEC3"
        },
        {
            "bufferView" : 33,
            "componentType" : 5126,
            "count" : 24,
            "type" : "VEC3"
        },
        {
            "bufferView" : 34,
            "componentType" : 5126,
            "count" : 24,
            "type" : "VEC2"
        },
        {
            "bufferView" : 35,
            "componentType" : 5123,
            "count" : 36,
            "type" : "SCALAR"
        }
    ],
    "bufferViews" : [
        {
            "buffer" : 0,
            "byteLength" : 36768,
            "byteOffset" : 0,
            "target" : 34962
        },
        {
            "buffer" : 0,
            "byteLength" : 36768,
            "byteOffset" : 36768,
            "target" : 34962
        },
        {
            "buffer" : 0,
            "byteLength" : 24512,
            "byteOffset" : 73536,
            "target" : 34962
        },
        {
            "buffer" : 0,
            "byteLength" : 21396,
            "byteOffset" : 98048,
            "target" : 34963
        },
        {
            "buffer" : 0,
            "byteLength" : 8220,
            "byteOffset" : 119444,
            "target" : 34962
        },
        {
            "buffer" : 0,
            "byteLength" : 8220,
            "byteOffset" : 127664,
            "target" : 34962
        },
        {
            "buffer" : 0,
            "byteLength" : 5480,
            "byteOffset" : 135884,
            "target" : 34962
        },
        {
            "buffer" : 0,
            "byteLength" : 3072,
            "byteOffset" : 141364,
            "target" : 34963
        },
        {
            "buffer" : 0,
            "byteLength" : 288,
            "byteOffset" : 144436,
            "target" : 34962
        },
        {
            "buffer" : 0,
            "byteLength" : 288,
            "byteOffset" : 144724,
            "target" : 34962
        },
        {
            "buffer" : 0,
            "byteLength" : 192,
            "byteOffset" : 145012,
            "target" : 34962
        },
        {
            "buffer" : 0,
            "byteLength" : 72,
            "byteOffset" : 145204,
            "target" : 34963
        },
        {
            "buffer" : 0,
            "byteLength" : 2016,
            "byteOffset" : 145276,
            "target" : 34962
        },
        {
            "buffer" : 0,
            "byteLength" : 2016,
            "byteOffset" : 147292,
            "target" : 34962
        },
        {
            "buffer" : 0,
            "byteLength" : 1344,
            "byteOffset" : 149308,
            "target" : 34962
        },
        {
            "buffer" : 0,
            "byteLength" : 432,
            "byteOffset" : 150652,
            "target" : 34963
        },
        {
            "buffer" : 0,
            "byteLength" : 5568,
            "byteOffset" : 151084,
            "target" : 34962
        },
        {
            "buffer" : 0,
            "byteLength" : 5568,
            "byteOffset" : 156652,
            "target" : 34962
        },
        {
            "buffer" : 0,
            "byteLength" : 3712,
            "byteOffset" : 162220,
            "target" : 34962
        },
        {
            "buffer" : 0,
            "byteLength" : 2952,
            "byteOffset" : 165932,
            "target" : 34963
        },
        {
            "buffer" : 0,
            "byteLength" : 2280,
            "byteOffset" : 168884,
            "target" : 34962
        },
        {
            "buffer" : 0,
            "byteLength" : 2280,
            "byteOffset" : 171164,
            "target" : 34962
        },
        {
            "buffer" : 0,
            "byteLength" : 1520,
            "byteOffset" : 173444,
            "target" : 34962
        },
        {
            "buffer" : 0,
            "byteLength" : 816,
            "byteOffset" : 174964,
            "target" : 34963
        },
        {
            "buffer" : 0,
            "byteLength" : 864,
            "byteOffset" : 175780,
            "target" : 34962
        },
        {
            "buffer" : 0,
            "byteLength" : 864,
            "byteOffset" : 176644,
            "target" : 34962
        },
        {
            "buffer" : 0,
            "byteLength" : 576,
            "byteOffset" : 177508,
            "target" : 34962
        },
        {
            "buffer" : 0,
            "byteLength" : 240,
            "byteOffset" : 178084,
            "target" : 34963
        },
        {
            "buffer" : 0,
            "byteLength" : 1176,
            "byteOffset" : 178324,
            "target" : 34962
        },
        {
            "buffer" : 0,
            "byteLength" : 1176,
            "byteOffset" : 179500,
            "target" : 34962
        },
        {
            "buffer" : 0,
            "byteLength" : 784,
            "byteOffset" : 180676,
            "target" : 34962
        },
        {
            "buffer" : 0,
            "byteLength" : 480,
            "byteOffset" : 181460,
            "target" : 34963
        },
        {
            "buffer" : 0,
            "byteLength" : 288,
            "byteOffset" : 181940,
            "target" : 34962
        },
        {
            "buffer" : 0,
            "byteLength" : 288,
            "byteOffset" : 182228,
            "target" : 34962
        },
        {
            "buffer" : 0,
            "byteLength" : 192,
            "byteOffset" : 182516,
            "target" : 34962
        },
        {
            "buffer" : 0,
            "byteLength" : 72,
            "byteOffset" : 182708,
            "target" : 34963
        }
    ],
    "buffers" : [
        {
            "byteLength" : 182780,
            "uri" : "data:application/octet-stream;base64,"
        }
    ]
}
